<?xml version="1.0" encoding="iso-8859-1"?>
<!-- Generator: Adobe Illustrator 17.1.0, SVG Export Plug-In . SVG Version: 6.00 Build 0)  -->
<!DOCTYPE svg PUBLIC "-//W3C//DTD SVG 1.1//EN" "http://www.w3.org/Graphics/SVG/1.1/DTD/svg11.dtd">
<svg version="1.1" id="Capa_1" xmlns="http://www.w3.org/2000/svg" xmlns:xlink="http://www.w3.org/1999/xlink" x="0px" y="0px"
	 viewBox="0 0 341 341" style="enable-background:new 0 0 341 341;" xml:space="preserve">
<g>
	<path d="M336,176.5v-43c0-3.037-2.463-5.5-5.5-5.5H144.001V5.5c0-3.037-2.462-5.5-5.5-5.5C64.889,0,5,59.888,5,133.5v0.072
		c0,0.004,0,0.006,0,0.006c0,0.01,0,0.017,0,0.017V176.5c0,25.814,19.473,47.152,44.499,50.131v97.945
		c-9.126-4.075-17.255-10.333-23.657-18.474c-1.878-2.387-5.334-2.802-7.723-0.923c-2.388,1.878-2.801,5.336-0.923,7.724
		C31.24,330.759,52.308,341,74.999,341c22.693,0,43.762-10.242,57.806-28.101c1.878-2.388,1.464-5.845-0.923-7.723
		c-2.388-1.878-5.846-1.464-7.723,0.924c-6.402,8.142-14.532,14.399-23.659,18.476V227H240.5v97.576
		c-9.127-4.075-17.256-10.333-23.657-18.474c-1.877-2.388-5.336-2.802-7.724-0.923c-2.387,1.878-2.801,5.336-0.923,7.724
		C222.239,330.759,243.308,341,266,341c22.691,0,43.761-10.242,57.806-28.1c1.878-2.388,1.465-5.846-0.923-7.724
		c-2.388-1.879-5.846-1.463-7.724,0.923c-6.403,8.142-14.532,14.4-23.659,18.476v-97.944C316.526,223.653,336,202.314,336,176.5z
		 M324.273,139c-2.507,11.977-13.146,21-25.857,21c-12.711,0-23.351-9.023-25.857-21H324.273z M260.275,139
		c-2.507,11.977-13.147,21-25.859,21c-12.711,0-23.351-9.023-25.857-21H260.275z M196.277,139c-2.507,11.977-13.148,21-25.859,21
		c-12.71,0-23.352-9.023-25.858-21H196.277z M133.001,11.122V128H16.123C18.927,64.818,69.819,13.927,133.001,11.122z M132.277,139
		c-2.506,11.977-13.147,21-25.858,21c-12.711,0-23.352-9.023-25.858-21H132.277z M68.277,139c-2.506,11.977-13.147,21-25.858,21
		c-12.711,0-23.352-9.023-25.858-21H68.277z M16,176.5v-16.445C22.774,166.814,32.117,171,42.419,171
		c13.544,0,25.431-7.233,31.999-18.04c6.569,10.807,18.456,18.04,32,18.04c13.545,0,25.431-7.233,32-18.039
		c6.569,10.806,18.455,18.039,32,18.039c13.544,0,25.43-7.232,32-18.038C208.986,163.768,220.872,171,234.416,171
		c13.545,0,25.432-7.233,32.001-18.04c6.568,10.807,18.454,18.04,31.999,18.04c10.388,0,19.798-4.258,26.584-11.116V176.5
		c0,21.78-17.72,39.5-39.5,39.5h-230C33.72,216,16,198.28,16,176.5z M89.499,328.309c-4.692,1.109-9.549,1.691-14.5,1.691
		s-9.808-0.582-14.5-1.691V227h29V328.309z M266,330c-4.951,0-9.809-0.582-14.5-1.691V227h29v101.309
		C275.809,329.418,270.951,330,266,330z"/>
</g>
<g>
</g>
<g>
</g>
<g>
</g>
<g>
</g>
<g>
</g>
<g>
</g>
<g>
</g>
<g>
</g>
<g>
</g>
<g>
</g>
<g>
</g>
<g>
</g>
<g>
</g>
<g>
</g>
<g>
</g>
</svg>
