<?xml version="1.0" encoding="iso-8859-1"?>
<!-- Generator: Adobe Illustrator 19.0.0, SVG Export Plug-In . SVG Version: 6.00 Build 0)  -->
<svg version="1.1" id="Capa_1" xmlns="http://www.w3.org/2000/svg" xmlns:xlink="http://www.w3.org/1999/xlink" x="0px" y="0px"
	 viewBox="0 0 511.999 511.999" style="enable-background:new 0 0 511.999 511.999;" xml:space="preserve">
<g>
	<g>
		<path d="M501.242,222.68c-1.69-15.99-2.823-32.986-10.712-47.371c-8.81-16.063-24.946-19.598-41.644-21.728
			c-0.199-19.875-0.476-39.75-0.595-59.626c-0.13-21.769-0.243-43.42-2.29-65.117c-0.66-6.994-1.6-14.18-6.581-19.557
			c-4.816-5.199-11.699-7.162-18.534-7.828c-8.833-0.861-18.946,0.18-27.962,3.369c-19.916-2.611-39.896-3.103-59.981-3.75
			c-21.428-0.689-42.846-1.152-64.286-1.061c-42.733,0.181-85.456,1.619-128.192,1.272c-21.257-0.172-42.525-1.561-63.78-1.196
			C66.267,0.266,55.849,0.83,45.481,1.866C38.442,2.57,31.064,3.237,24.728,6.663C9.771,14.75,11.671,35.75,11.552,50.262
			c-0.167,20.427-0.691,40.842-0.886,61.269c-0.406,42.522-2.337,84.802-0.734,127.343c0.782,20.771,2.335,41.531,2.422,62.322
			c0.088,21.145-0.591,42.275,0.669,63.4c1.252,20.982,3.617,41.898,3.648,62.94c0.027,18.724-1.536,37.826,0.411,56.493
			c0.712,6.828,3.188,13.408,9.521,16.853c6.028,3.279,13.732,3.038,20.387,3.296c9.791,0.379,19.463-0.152,29.248-0.417
			c10.602-0.287,21.251,0.356,31.855,0.505c43.057,0.604,85.992,0.279,129.021,2.396c21.108,1.039,42.216,2.146,63.347,2.608
			c9.989,0.219,19.988,0.057,29.964,0.668c9.55,0.584,19.08,1.528,28.649,1.75c5.99,0.139,11.945-0.548,17.896-1.131
			c5.769-0.565,10.457-0.358,16.069,0.403c7.772,1.055,15.788,1.772,23.481-0.228c15.524-4.036,20.26-18.01,21.734-32.427
			c1.613-15.775,0.861-31.82,2.083-47.658c1.709-22.164,4.126-44.275,5.033-66.494c0.129-3.175,0.239-6.35,0.338-9.525
			c12.949,0.119,28.394-8.203,37.532-16.129c13.562-11.762,15.109-31.461,17.045-48.068
			C502.911,267.911,503.628,245.255,501.242,222.68z M329.396,496.898c-19.557-1.072-39.23-0.621-58.814-1.391
			c-41.066-1.614-81.995-3.52-123.105-3.509c-20.267,0.005-40.532-0.096-60.792-0.632c-10.038-0.267-20.011,0.64-30.041,0.678
			c-6.911,0.026-15.109,0.437-21.835-1.341c-6.827-1.804-5.519-10.169-5.66-15.835c-0.239-9.599-0.454-19.146-0.287-28.753
			c0.344-19.887-0.265-39.527-1.794-59.36c-3.074-39.867-1.427-79.699-3.404-119.598c-2.008-40.531-2.848-80.979-1.18-121.536
			c0.821-19.979,0.598-39.981,1.063-59.97c0.432-18.572-0.431-37.523,1.801-55.989c0.94-7.783,3.316-11.699,11.146-13.554
			c8.118-1.924,16.814-2.159,25.112-2.651c20.326-1.205,40.566-0.194,60.896,0.149c40.738,0.689,81.471-0.601,122.201-1.268
			c40.529-0.662,81.022,1.261,121.527,0.796c4.057-0.047,8.052-0.226,12.036-0.48c-1.428,1.204-2.766,2.54-3.99,4.022
			c-5.641,6.827-8.593,15.365-10.43,24.285c-17.48-1.725-35.143,0.133-52.694-0.064c-17.969-0.202-35.847-1.631-53.782-2.551
			c-36.455-1.87-72.958-0.508-109.425,0.17c-17.954,0.333-35.831,1.033-53.766,1.902c-10.904,0.527-25.407-1.01-34.372,6.563
			c-4.865,4.108-6.095,9.941-6.299,16.057c-0.267,8.037-1.05,15.887-1.941,23.887c-2.028,18.201-3.175,36.482-4.007,54.773
			c-1.667,36.635-2.472,73.293-3.144,109.957c-0.673,36.741-2.204,73.525-1.804,110.275c0.199,18.314,1.323,36.6,1.697,54.91
			c0.157,7.677,0.002,15.322-0.052,22.994c-0.042,5.951,0.512,12.234,3.636,17.454c6.272,10.479,20.725,13.085,31.817,14.12
			c13.29,1.239,26.848,0.467,40.186,0.754c40.526,0.869,81.143-1.227,121.632,0.221c20.719,0.741,41.334,1.588,62.073,0.925
			c9.762-0.313,19.641-0.767,29.369,0.35c6.213,0.714,12.242,1.882,18.029-0.209c1.182,9.354,3.474,18.553,9.237,25.29
			C349.928,498.495,339.589,497.457,329.396,496.898z M300.756,437.9c0.345-10.32,0.658-20.708,0.745-31.031
			c0.063-7.595-1.009-15.852-6.974-21.212c-2.717-2.44-6.154-3.647-9.291-5.401c-3.219-1.801-3.185-3.604-2.911-7.274
			c0.586-7.843,5.791-18.417,0.734-25.729c-3.779-5.465-16.955-5.982-22.356-2.923c-7.091,4.017-5.575,14.563-5.571,21.172
			c0.003,4.624,0.65,10.132-0.148,14.706c-1.106,6.326-5.613,5.959-9.842,9.026c-2.746,1.991-4.443,5.031-5.495,8.206
			c-2.354,7.103-1.514,14.729-0.711,22.12c-0.365,7.164-0.12,14.47-0.246,21.155c-0.117,6.193-1.191,14.275,2.061,19.854
			c-8.485-0.219-16.973-0.279-25.461-0.254c3.771-5.987,2.524-15.965,2.74-22.414c0.345-10.32,0.658-20.708,0.745-31.031
			c0.063-7.595-1.008-15.852-6.974-21.212c-2.717-2.44-6.154-3.647-9.291-5.401c-3.219-1.801-3.185-3.604-2.91-7.274
			c0.586-7.843,5.79-18.417,0.734-25.729c-3.779-5.465-16.955-5.982-22.356-2.923c-7.091,4.017-5.575,14.563-5.571,21.172
			c0.003,4.624,0.651,10.132-0.148,14.706c-1.106,6.326-5.612,5.959-9.842,9.026c-2.746,1.991-4.443,5.031-5.495,8.206
			c-2.354,7.103-1.514,14.729-0.711,22.12c-0.365,7.164-0.12,14.47-0.246,21.155c-0.119,6.313-1.225,14.584,2.263,20.169
			c-2.659,0.005-5.318,0.005-7.976-0.009c-5.964-0.032-11.931-0.147-17.896-0.267c4.011-5.949,2.73-16.148,2.949-22.708
			c0.345-10.32,0.659-20.708,0.745-31.031c0.063-7.595-1.008-15.852-6.973-21.212c-2.717-2.44-6.154-3.647-9.292-5.401
			c-3.219-1.801-3.185-3.604-2.91-7.274c0.586-7.843,5.79-18.417,0.734-25.729c-3.779-5.465-16.954-5.982-22.356-2.923
			c-7.091,4.017-5.575,14.563-5.571,21.172c0.003,4.624,0.651,10.132-0.148,14.706c-1.105,6.326-5.612,5.959-9.842,9.026
			c-2.746,1.991-4.442,5.031-5.495,8.206c-2.354,7.103-1.514,14.729-0.711,22.12c-0.365,7.164-0.12,14.47-0.246,21.155
			c-0.107,5.703-1.024,13.007,1.368,18.484c-2.181-0.383-4.339-0.877-6.464-1.521c-5.606-1.697-10.599-4.396-11.876-10.547
			c-1.227-5.906-0.28-12.374-0.3-18.368c-0.056-17.089-1.013-34.145-1.585-51.218c-0.62-18.479-0.48-36.968-0.128-55.455
			c6.869,1.783,14.95,1.013,21.716,1.055c10.367,0.064,20.732,0.065,31.099,0.041c19.973-0.048,39.946-0.084,59.918-0.029
			c40.314,0.113,80.647,0.523,120.938,1.939c11.299,0.397,22.682,1.423,33.986,1.266c9.02-0.126,18.752-0.076,27.787-1.247
			c-0.006,3.739-0.014,7.479-0.016,11.218c-0.013,22.86,0.039,45.721,0.04,68.58c0,11.853-0.37,23.701-0.355,35.553
			c0.007,5.777,0.823,11.866,0.397,17.605c-0.343,4.616-6.301,4.86-10.33,4.892c-5.99,0.046-11.612-1.864-17.557-1.966
			c-6.095-0.104-12.189,0.119-18.279,0.325c-2.15,0.073-4.3,0.132-6.449,0.18c0.025-0.03,0.055-0.056,0.08-0.085
			C301.956,455.621,300.527,444.763,300.756,437.9z M248.115,444.922c6.417,2.309,13.578,0.456,20.618-0.025
			c7.733-0.529,15.501,2.403,23.185,1.486c-0.014,2.47-0.03,5.094-0.707,7.267c-0.854,2.737-2.419,3.168-5.236,3.702
			c-9.502,1.799-19.62,0.849-29.205,0.344c-3.136-0.166-7.088,0.062-8.388-3.297c-0.831-2.145-0.223-5.558-0.239-7.829
			C248.14,446.02,248.121,445.471,248.115,444.922z M270.236,436.883c-7.001,0.323-15.072,3.351-22.216,2.466
			c-0.016-0.715-0.018-1.43-0.037-2.146c-0.225-8.488,0.281-17.953-0.972-26.713c6.164,1.67,14.231,0.753,19.754,0.793
			c8.59,0.063,17.742,0.099,26.255-1.667c-0.121,1.94-0.279,3.849-0.363,5.656c-0.352,7.591-0.282,15.196-0.489,22.796
			C285.074,439.618,277.424,436.55,270.236,436.883z M265.656,403.918c-5.56-0.01-13.57-1.24-19.553,0.554
			c0.448-3.721,1.656-6.953,4.309-8.827c2.561-1.811,5.733-2.259,8.13-4.491c3.125-2.909,4.374-6.784,4.681-10.95
			c0.595-8.106-5.253-26.461,4.287-30.031c15.365-5.75,7.218,15.169,6.584,21.054c-0.529,4.908-0.528,10.305,3.332,13.901
			c4.284,3.991,11.157,4.387,13.891,10.083c1.123,2.34,1.615,4.929,1.786,7.595C283.939,403.27,274.868,403.935,265.656,403.918z
			 M165.39,444.922c6.417,2.309,13.578,0.456,20.618-0.025c7.733-0.529,15.501,2.403,23.185,1.486
			c-0.014,2.47-0.03,5.094-0.707,7.267c-0.854,2.737-2.419,3.168-5.236,3.702c-9.502,1.799-19.62,0.849-29.204,0.344
			c-3.136-0.166-7.088,0.062-8.389-3.297c-0.831-2.145-0.224-5.558-0.239-7.828C165.414,446.021,165.396,445.472,165.39,444.922z
			 M187.512,436.884c-7.001,0.323-15.072,3.351-22.217,2.466c-0.016-0.715-0.017-1.43-0.037-2.146
			c-0.226-8.489,0.281-17.954-0.973-26.714c6.164,1.67,14.231,0.753,19.754,0.793c8.59,0.063,17.742,0.099,26.255-1.667
			c-0.121,1.94-0.279,3.849-0.363,5.656c-0.352,7.591-0.282,15.196-0.489,22.796C202.349,439.618,194.699,436.551,187.512,436.884z
			 M182.931,403.918c-5.56-0.01-13.57-1.24-19.553,0.554c0.449-3.721,1.656-6.953,4.309-8.827c2.562-1.811,5.733-2.259,8.13-4.491
			c3.125-2.909,4.374-6.784,4.681-10.95c0.595-8.106-5.253-26.461,4.287-30.031c15.366-5.75,7.218,15.169,6.584,21.054
			c-0.529,4.908-0.527,10.305,3.333,13.901c4.284,3.991,11.157,4.387,13.891,10.083c1.123,2.34,1.615,4.929,1.785,7.595
			C201.214,403.27,192.143,403.935,182.931,403.918z M82.664,444.922c6.417,2.309,13.578,0.456,20.618-0.025
			c7.733-0.529,15.501,2.403,23.185,1.486c-0.014,2.47-0.03,5.094-0.707,7.267c-0.854,2.737-2.419,3.168-5.235,3.702
			c-9.503,1.799-19.621,0.849-29.205,0.344c-3.136-0.166-7.088,0.062-8.389-3.297c-0.83-2.145-0.223-5.558-0.239-7.829
			C82.687,446.02,82.669,445.471,82.664,444.922z M104.786,436.883c-7.001,0.323-15.072,3.351-22.217,2.466
			c-0.016-0.715-0.018-1.43-0.036-2.146c-0.226-8.488,0.28-17.953-0.973-26.713c6.164,1.67,14.231,0.753,19.754,0.793
			c8.59,0.063,17.742,0.099,26.255-1.667c-0.121,1.94-0.279,3.849-0.363,5.656c-0.352,7.591-0.282,15.196-0.489,22.796
			C119.622,439.618,111.973,436.55,104.786,436.883z M100.205,403.918c-5.56-0.01-13.57-1.24-19.553,0.554
			c0.448-3.721,1.656-6.953,4.309-8.827c2.562-1.811,5.733-2.259,8.131-4.491c3.124-2.909,4.373-6.784,4.68-10.95
			c0.595-8.106-5.253-26.461,4.287-30.031c15.366-5.75,7.218,15.169,6.584,21.054c-0.528,4.908-0.527,10.305,3.333,13.901
			c4.284,3.991,11.157,4.387,13.891,10.083c1.123,2.34,1.615,4.929,1.785,7.595C118.487,403.27,109.416,403.935,100.205,403.918z
			 M86.679,232.136c0.01-0.115,0.018-0.23,0.028-0.346c0.212-2.496,0.187-4.856,0.63-6.787c2.99,4.892,9.113,7.772,14.764,9.035
			c4.186,6.485-0.156,19.058-2.541,25.251c-3.187,8.277-10.212,19.624-7.974,28.775c-0.99-0.422-1.928-0.937-2.784-1.573
			c-2.71-2.016-3.53-4.772-3.734-8.022c-0.382-6.11,0.183-12.481,0.512-18.586C86.078,250.63,86.827,241.378,86.679,232.136z
			 M109.318,289.581c-0.902,0.048-1.796,0.09-2.666,0.126c-2.543,0.105-5.414,0.188-8.241-0.068
			c-0.854-3.635-1.577-7.113-0.549-11.129c1.212-4.74,3.606-9.108,5.628-13.531c2.092-4.577,3.473-9.268,4.394-14.227
			c0.398-2.148,1.308-10.647-0.09-15.938c2.716,0.152,5.41-0.024,8.055-0.455c2.676,12.859-6.651,24.716-8.522,37.418
			C106.599,276.724,105.849,285.173,109.318,289.581z M115.166,264.742c2.89-11.057,9.649-20.131,6.519-31.82
			c3.351-1.112,6.569-2.662,9.552-4.669c1.205,2.743,1.367,6.189,1.552,10.094c0.522,11.048,1.013,22.123,0.364,33.179
			c-0.386,6.578-1.057,13.109-8.065,15.558c-2.909,1.018-6.133,1.613-9.387,1.988C110.557,283.608,113.549,270.93,115.166,264.742z
			 M107.028,228.262c-6.853-0.526-11.628-4.008-17.198-7.004c0.817-0.482,1.861-0.82,3.237-0.964
			c9.734-1.012,21.404-0.314,30.829,2.234c1.205,0.325,2.222,0.737,3.112,1.214C120.867,226.854,113.927,228.791,107.028,228.262z
			 M124.635,302.168c25.332,0.339,50.663,0.65,75.995,0.964c49.682,0.614,99.356,0.895,149.041,0.933
			c0.033,0,0.061-0.008,0.094-0.009c-0.017,3.833-0.033,7.665-0.043,11.498c-7.536-1.562-15.941,0.075-23.471,0.44
			c-9.976,0.484-20-0.373-29.971-0.733c-19.917-0.722-39.842-1.169-59.77-1.43c-40.349-0.528-80.71-0.059-121.058,0.404
			c-11.567,0.133-23.134,0.254-34.7,0.478c-8.051,0.156-18.156-0.942-26.374,1.328c0.114-5.342,0.243-10.682,0.369-16.022
			C77.619,303.405,101.599,301.86,124.635,302.168z M164.396,232.136c0.01-0.115,0.018-0.23,0.028-0.346
			c0.212-2.496,0.188-4.856,0.63-6.787c2.99,4.892,9.112,7.772,14.764,9.035c4.186,6.485-0.156,19.058-2.541,25.251
			c-3.187,8.277-10.212,19.624-7.974,28.775c-0.991-0.422-1.928-0.937-2.784-1.573c-2.71-2.016-3.53-4.772-3.733-8.022
			c-0.383-6.11,0.183-12.481,0.512-18.586C163.796,250.63,164.544,241.378,164.396,232.136z M187.036,289.581
			c-0.903,0.048-1.796,0.09-2.667,0.126c-2.543,0.105-5.414,0.188-8.241-0.068c-0.854-3.635-1.577-7.113-0.55-11.129
			c1.212-4.74,3.606-9.108,5.628-13.531c2.092-4.577,3.474-9.268,4.394-14.227c0.399-2.147,1.31-10.646-0.089-15.938
			c2.716,0.152,5.41-0.024,8.056-0.455c2.675,12.859-6.651,24.716-8.522,37.418C184.317,276.725,183.567,285.173,187.036,289.581z
			 M192.885,264.742c2.89-11.057,9.648-20.131,6.518-31.82c3.351-1.112,6.569-2.662,9.552-4.669
			c1.204,2.743,1.367,6.189,1.551,10.094c0.523,11.048,1.013,22.123,0.364,33.179c-0.384,6.578-1.056,13.109-8.063,15.558
			c-2.909,1.018-6.133,1.613-9.387,1.988C188.276,283.608,191.268,270.93,192.885,264.742z M184.746,228.262
			c-6.853-0.526-11.629-4.008-17.198-7.004c0.817-0.482,1.861-0.82,3.237-0.964c9.734-1.012,21.404-0.314,30.829,2.234
			c1.205,0.325,2.222,0.737,3.112,1.214C198.585,226.854,191.645,228.791,184.746,228.262z M242.115,232.136
			c0.01-0.115,0.018-0.23,0.028-0.346c0.212-2.496,0.187-4.856,0.63-6.787c2.99,4.892,9.113,7.772,14.764,9.035
			c4.186,6.485-0.156,19.058-2.541,25.251c-3.187,8.277-10.212,19.624-7.974,28.775c-0.991-0.422-1.928-0.937-2.784-1.573
			c-2.71-2.016-3.53-4.772-3.734-8.022c-0.382-6.11,0.183-12.481,0.512-18.586C241.515,250.63,242.263,241.378,242.115,232.136z
			 M264.755,289.581c-0.902,0.048-1.796,0.09-2.666,0.126c-2.543,0.105-5.414,0.188-8.241-0.068
			c-0.854-3.635-1.576-7.113-0.549-11.129c1.212-4.74,3.606-9.108,5.628-13.531c2.092-4.577,3.474-9.268,4.394-14.227
			c0.399-2.147,1.31-10.646-0.089-15.938c2.716,0.152,5.41-0.024,8.055-0.455c2.676,12.859-6.651,24.716-8.522,37.418
			C262.036,276.725,261.285,285.173,264.755,289.581z M270.604,264.742c2.89-11.057,9.648-20.131,6.518-31.82
			c3.351-1.112,6.569-2.662,9.552-4.669c1.204,2.743,1.367,6.189,1.551,10.094c0.522,11.048,1.013,22.123,0.364,33.179
			c-0.386,6.578-1.057,13.109-8.064,15.559c-2.909,1.018-6.133,1.613-9.387,1.988C265.994,283.608,268.986,270.931,270.604,264.742z
			 M262.464,228.262c-6.853-0.526-11.628-4.008-17.198-7.004c0.817-0.482,1.861-0.82,3.237-0.964
			c9.734-1.012,21.404-0.314,30.829,2.234c1.205,0.325,2.222,0.737,3.112,1.214C276.304,226.854,269.363,228.791,262.464,228.262z
			 M349.815,294.523c-0.051-0.001-0.093-0.014-0.145-0.014c-21.337,0.018-42.672-0.02-64.006-0.1
			c6.664-3.15,10.032-9.143,11.095-16.591c1.908-13.358,0.848-27.259,0.168-40.671c-0.413-8.152-1.383-16.51-9.196-20.901
			c-9.795-5.507-23.787-5.364-34.662-5.222c-8.437,0.11-15.708,1.451-17.564,10.72c-1.178,5.885-1.081,12.116-1.573,18.079
			c-0.44,5.322-0.856,10.239-0.588,15.234c-0.365,3.543-0.707,7.09-0.993,10.642c-0.749,9.298-2.137,20.259,5.778,26.966
			c0.651,0.553,1.338,1.047,2.048,1.502c-10.4-0.076-20.8-0.173-31.2-0.277c5.984-3.266,9.056-9.018,10.063-16.071
			c1.907-13.358,0.848-27.259,0.168-40.671c-0.413-8.152-1.383-16.51-9.195-20.901c-9.796-5.507-23.788-5.364-34.662-5.222
			c-8.436,0.11-15.707,1.451-17.563,10.72c-1.179,5.885-1.081,12.116-1.574,18.079c-0.439,5.322-0.856,10.239-0.588,15.234
			c-0.365,3.543-0.706,7.09-0.993,10.642c-0.749,9.298-2.137,20.259,5.778,26.966c0.297,0.253,0.605,0.487,0.916,0.719
			c-9.603-0.1-19.206-0.179-28.81-0.244c5.16-3.359,7.871-8.779,8.805-15.321c1.907-13.358,0.848-27.259,0.168-40.671
			c-0.413-8.152-1.384-16.51-9.196-20.901c-9.795-5.507-23.787-5.364-34.662-5.222c-8.436,0.11-15.707,1.451-17.563,10.72
			c-1.179,5.885-1.082,12.116-1.574,18.079c-0.439,5.322-0.855,10.239-0.588,15.234c-0.365,3.543-0.706,7.09-0.992,10.642
			c-0.742,9.213-2.098,20.052,5.576,26.774c-9.299,0.131-18.551,0.642-27.618,1.964c0.166-7.108,0.326-14.216,0.449-21.321
			c0.536-30.93,1.005-61.861,1.945-92.782c23.603,3.606,47.732,2.608,71.539,2.24c25.101-0.389,50.153-0.544,75.252,0.036
			c49.29,1.141,98.605,0.816,147.904,0.82c-0.186,5.646-0.362,11.287-0.539,16.917C350.437,231.732,350.001,263.127,349.815,294.523
			z M360.193,67.015c-4.724,34.593-6.575,69.742-7.829,104.742c-49.032,0.048-98.086,0.576-147.114-0.202
			c-24.704-0.393-49.354-0.157-74.053,0.396c-24.553,0.55-49.23,0.098-73.735,1.751c0.036-1.076,0.059-2.152,0.096-3.229
			c0.599-17.604,1.246-35.218,2.41-52.794c1.072-16.193,3.59-32.18,5.053-48.322c0.517-5.703-0.641-11.931,5.681-14.299
			c4.801-1.799,10.255-1.598,15.302-1.779c16.285-0.585,32.529-1.867,48.828-2.124c38.456-0.604,76.926-2.279,115.386-0.968
			c18.771,0.639,37.491,2.196,56.279,2.439c18.809,0.243,37.295-1.684,55.951-3.53C361.565,55.214,360.969,61.325,360.193,67.015z
			 M434.93,275.155c-1.152,40.389-0.529,80.774-3.864,121.076c-1.563,18.89-3.875,37.86-4.225,56.824
			c-0.222,12.067,1.22,25.795-3.615,37.192c-5.695,13.425-24.273,9.165-35.554,7.492c-6.046-0.897-13.115-1.838-17.726-6.277
			c-5.32-5.122-6.208-14.542-6.988-21.476c-2.101-18.691-0.97-37.886-0.987-56.657c-0.019-20.451-0.091-40.902-0.131-61.353
			c-0.082-40.921-0.041-81.845,0.788-122.758c0.825-40.712,2.514-81.411,5.403-122.032c1.367-19.223,3.478-38.323,6.62-57.339
			c1.289-7.801,2.733-16.078,7.171-22.794c4.691-7.099,11.586-9.881,19.712-10.998c8.079-1.109,17.539-4.003,25.342-0.441
			c6.167,2.816,6.212,9.737,6.739,15.643c3.559,39.921,2.367,80.319,2.837,120.367C436.936,192.864,436.106,233.941,434.93,275.155z
			 M448.702,206.809c4.006,1.719,6.481,4.517,8.165,9.959c2.295,7.418,2.528,15.302,2.479,23.006
			c-0.064,10.105-0.733,20.418-1.796,30.454c-0.631,5.956-1.218,13.796-6.155,17.918c-1.437,1.199-2.991,2.193-4.551,3.168
			C447.366,263.123,448.241,234.977,448.702,206.809z M488.806,285.82c-1.137,10.346-1.903,21.232-5.56,31.064
			c-5.352,14.393-21.947,24.076-37.219,25.504c0.274-12.483,0.41-24.97,0.589-37.455c4.804-3.079,10.316-6.085,14.216-10.239
			c5.109-5.441,6.444-13.042,7.387-20.178c1.637-12.381,2.608-25.61,2.072-38.142c-0.41-9.574-1.653-20.082-6.418-28.577
			c-3.183-5.673-8.88-10.257-15.029-10.151c0.145-11.484,0.207-22.976,0.123-34.477c5.271,2.317,11.227,3.205,16.674,5.074
			c9.094,3.12,14.359,10.474,17.543,19.276c3.148,8.706,4.372,17.996,5.356,27.153c1.207,11.216,2.2,22.403,2.281,33.693
			C490.911,260.877,490.173,273.388,488.806,285.82z"/>
	</g>
</g>
<g>
	<g>
		<path d="M127.923,107.543c-0.518-15.401-1.27-40.175-22.04-40.669c-8.317-0.197-14.442,3.33-18.766,8.771
			c-2.87,2.208-5.252,5.256-7.017,9.453c-4.71,11.205-3.764,23.557-3.975,35.418c-0.163,9.155-1.782,22.146,6.758,28.258
			c7.107,5.086,19.474,7.011,27.802,4.197C128.23,147.045,128.431,122.643,127.923,107.543z M112.096,140.041
			c-4.417,5.373-12.207,4.218-18.157,2.479c-3.587-1.048-6.163-2.096-7.18-5.837c-1.11-4.085-0.941-8.565-0.944-12.766
			c-0.003-5.121-0.32-10.331-0.406-15.525c2.008-11.361,0.573-26.867,13.054-31.063c17.151-5.765,18.55,14.351,19.09,25.958
			C118.073,114.488,119.757,130.723,112.096,140.041z"/>
	</g>
</g>
<g>
</g>
<g>
</g>
<g>
</g>
<g>
</g>
<g>
</g>
<g>
</g>
<g>
</g>
<g>
</g>
<g>
</g>
<g>
</g>
<g>
</g>
<g>
</g>
<g>
</g>
<g>
</g>
<g>
</g>
</svg>
