<?xml version="1.0" encoding="iso-8859-1"?>
<!-- Generator: Adobe Illustrator 18.1.1, SVG Export Plug-In . SVG Version: 6.00 Build 0)  -->
<svg version="1.1" id="Capa_1" xmlns="http://www.w3.org/2000/svg" xmlns:xlink="http://www.w3.org/1999/xlink" x="0px" y="0px"
	 viewBox="0 0 383.967 383.967" style="enable-background:new 0 0 383.967 383.967;" xml:space="preserve">
<g>
	<path d="M144.451,76.236c-15.353-14.09-35.805-22.708-58.236-22.708C38.676,53.528,0,92.204,0,139.743
		c0,30.21,15.632,56.823,39.219,72.224c6.189,27.173,17.103,53.855,27.928,77.97c9.819,21.697,23.931,48.929,53.006,38.012
		c24.277-9.115,24.218-33.163,16.569-53.484c-5.865-15.583-13.186-35.237-17.861-54.946c13.636-5.601,25.522-14.596,34.615-25.933
		l99.29-20.348l39.631,4.433V94.002l-39.631,4.431L144.451,76.236z M80.777,88.129c-1.975,1.656-4.128,3.615-6.524,6.011
		c-8.096,8.097-11.296,13.476-14.119,18.222c-2.644,4.443-4.926,8.281-11.506,14.861c-6.291,6.291-10.075,8.653-14.278,11.158
		C35.028,112.217,55.15,90.809,80.777,88.129z M44.411,170.455c-3.038-4.123-5.475-8.711-7.196-13.635
		c1.823-1.262,3.525-2.277,5.325-3.348c4.745-2.822,10.124-6.021,18.22-14.118c8.096-8.097,11.296-13.476,14.119-18.222
		c2.644-4.443,4.926-8.281,11.506-14.861c6.58-6.579,10.416-8.862,14.859-11.504c1.517-0.902,3.101-1.846,4.815-2.973
		c5.151,2.14,9.879,5.091,14.039,8.685c-2.415,1.798-4.539,3.064-6.82,4.421c-4.745,2.823-10.123,6.022-18.22,14.118
		c-8.097,8.097-11.296,13.475-14.12,18.22c-2.644,4.443-4.926,8.281-11.507,14.861c-6.579,6.58-10.415,8.863-14.858,11.505
		C51.604,165.372,48.387,167.286,44.411,170.455z M76.662,185.91c-1.738,1.034-3.562,2.121-5.573,3.478
		c-5.12-1.562-9.904-3.899-14.221-6.869c2.275-1.666,4.305-2.875,6.478-4.168c4.745-2.823,10.123-6.022,18.218-14.119
		c8.097-8.097,11.296-13.475,14.12-18.22c2.643-4.443,4.926-8.281,11.506-14.86c6.581-6.58,10.417-8.862,14.861-11.505
		c2.68-1.594,5.562-3.309,9.021-5.959c2.328,3.993,4.146,8.316,5.347,12.89c-0.348,0.208-0.698,0.417-1.052,0.627
		c-4.745,2.823-10.123,6.023-18.219,14.118c-8.097,8.097-11.297,13.476-14.12,18.221c-2.644,4.443-4.926,8.281-11.507,14.861
		C84.94,180.984,81.104,183.267,76.662,185.91z M100.411,189.652c1.032-0.954,2.107-1.981,3.241-3.115
		c8.097-8.097,11.297-13.476,14.12-18.221c2.644-4.443,4.926-8.28,11.507-14.861c3.387-3.387,6.044-5.631,8.434-7.376
		C135.16,166.95,120.178,184.021,100.411,189.652z M202.142,106.194c-0.424,2.23-2.376,3.783-4.565,3.783
		c-0.289,0-0.581-0.027-0.876-0.083l-32.314-6.153c-2.524-0.48-4.181-2.916-3.7-5.44c0.48-2.524,2.923-4.18,5.44-3.7l32.314,6.153
		C200.966,101.234,202.622,103.671,202.142,106.194z M235.526,112.551c-0.425,2.23-2.375,3.783-4.565,3.783
		c-0.289,0-0.582-0.027-0.876-0.083l-14.54-2.769c-2.524-0.481-4.181-2.917-3.7-5.441c0.481-2.524,2.921-4.181,5.441-3.7l14.54,2.77
		C234.351,107.591,236.007,110.027,235.526,112.551z"/>
	<path d="M305.909,111.582c5.411,0,7.946,1.055,10.882,2.277c3.231,1.345,6.895,2.87,13.849,2.87c6.954,0,10.617-1.525,13.849-2.87
		c2.936-1.222,5.471-2.277,10.884-2.277c5.412,0,7.948,1.055,10.884,2.277c3.232,1.345,6.895,2.87,13.851,2.87
		c2.132,0,3.86-1.729,3.86-3.86s-1.729-3.86-3.86-3.86c-5.412,0-7.948-1.055-10.884-2.277c-3.232-1.345-6.896-2.87-13.851-2.87
		c-6.955,0-10.619,1.525-13.851,2.87c-2.936,1.222-5.471,2.277-10.882,2.277s-7.946-1.055-10.882-2.277
		c-3.232-1.345-6.895-2.87-13.849-2.87c-2.132,0-3.86,1.729-3.86,3.86C302.049,109.853,303.777,111.582,305.909,111.582z"/>
	<path d="M380.106,134.744c-5.413,0-7.948-1.055-10.884-2.277c-3.232-1.345-6.896-2.87-13.851-2.87
		c-6.955,0-10.619,1.524-13.851,2.87c-2.936,1.222-5.471,2.277-10.882,2.277s-7.946-1.055-10.882-2.277
		c-3.232-1.345-6.895-2.87-13.849-2.87c-2.132,0-3.86,1.729-3.86,3.86c0,2.132,1.728,3.86,3.86,3.86
		c5.411,0,7.946,1.055,10.882,2.277c3.232,1.345,6.895,2.87,13.849,2.87c6.954,0,10.617-1.524,13.848-2.869
		c2.936-1.222,5.472-2.277,10.884-2.277s7.948,1.055,10.884,2.277c3.232,1.345,6.896,2.87,13.851,2.87c2.132,0,3.86-1.729,3.86-3.86
		C383.967,136.473,382.238,134.744,380.106,134.744z"/>
	<path d="M380.106,160.48c-5.413,0-7.948-1.055-10.884-2.277c-3.232-1.345-6.896-2.87-13.851-2.87
		c-6.955,0-10.619,1.524-13.851,2.87c-2.936,1.222-5.471,2.277-10.882,2.277s-7.946-1.055-10.882-2.277
		c-3.232-1.345-6.895-2.87-13.849-2.87c-2.132,0-3.86,1.729-3.86,3.86s1.728,3.86,3.86,3.86c5.411,0,7.946,1.055,10.882,2.277
		c3.232,1.345,6.895,2.87,13.849,2.87c6.954,0,10.617-1.524,13.848-2.869c2.936-1.222,5.472-2.277,10.884-2.277
		s7.948,1.055,10.884,2.277c3.232,1.345,6.896,2.87,13.851,2.87c2.132,0,3.86-1.729,3.86-3.86
		C383.967,162.209,382.238,160.48,380.106,160.48z"/>
</g>
<g>
</g>
<g>
</g>
<g>
</g>
<g>
</g>
<g>
</g>
<g>
</g>
<g>
</g>
<g>
</g>
<g>
</g>
<g>
</g>
<g>
</g>
<g>
</g>
<g>
</g>
<g>
</g>
<g>
</g>
</svg>
